solid OpenSCAD_Model
  facet normal -0.994522 0.104525 0
    outer loop
      vertex -42.5 0 0
      vertex -41.5713 8.83625 5
      vertex -41.5713 8.83625 0
    endloop
  endfacet
  facet normal -0.994522 0.104525 0
    outer loop
      vertex -41.5713 8.83625 5
      vertex -42.5 0 0
      vertex -42.5 0 5
    endloop
  endfacet
  facet normal -0.951033 0.309091 0
    outer loop
      vertex -41.5713 8.83625 0
      vertex -41.2855 9.71562 5
      vertex -41.2855 9.71562 0
    endloop
  endfacet
  facet normal -0.951033 0.309091 0
    outer loop
      vertex -41.2855 9.71562 5
      vertex -41.5713 8.83625 0
      vertex -41.5713 8.83625 5
    endloop
  endfacet
  facet normal 0.994522 -0.104525 0
    outer loop
      vertex 41.5713 -8.83625 5
      vertex 42.5 0 0
      vertex 42.5 0 5
    endloop
  endfacet
  facet normal 0.994522 -0.104525 0
    outer loop
      vertex 42.5 0 0
      vertex 41.5713 -8.83625 5
      vertex 41.5713 -8.83625 0
    endloop
  endfacet
  facet normal -0 0 1
    outer loop
      vertex 20 86.5 5
      vertex 32.5 80 5
      vertex 31.7898 86.7571 5
    endloop
  endfacet
  facet normal 0 0 1
    outer loop
      vertex 32.5 80 5
      vertex 31.7898 6.75713 5
      vertex 32.5 0 5
    endloop
  endfacet
  facet normal 0 0 1
    outer loop
      vertex 20 86.5 5
      vertex 31.7898 86.7571 5
      vertex 29.6902 93.2189 5
    endloop
  endfacet
  facet normal 0 0 1
    outer loop
      vertex 32.5 80 5
      vertex 29.6902 13.2189 5
      vertex 31.7898 6.75713 5
    endloop
  endfacet
  facet normal 0 0 1
    outer loop
      vertex 20 86.5 5
      vertex 29.6902 93.2189 5
      vertex 26.2931 99.103 5
    endloop
  endfacet
  facet normal 0 -0 1
    outer loop
      vertex 21.7467 24.1522 5
      vertex 32.5 80 5
      vertex 20 73.5 5
    endloop
  endfacet
  facet normal 0 0 1
    outer loop
      vertex 20 86.5 5
      vertex 26.2931 99.103 5
      vertex 21.7467 104.152 5
    endloop
  endfacet
  facet normal 0 0 1
    outer loop
      vertex 32.5 80 5
      vertex 26.2931 19.103 5
      vertex 29.6902 13.2189 5
    endloop
  endfacet
  facet normal 0 0 1
    outer loop
      vertex 32.5 80 5
      vertex 20 86.5 5
      vertex 20 73.5 5
    endloop
  endfacet
  facet normal 0 0 1
    outer loop
      vertex 16.25 108.146 5
      vertex 20 86.5 5
      vertex 21.7467 104.152 5
    endloop
  endfacet
  facet normal 0 0 1
    outer loop
      vertex 10.0431 110.909 5
      vertex 20 86.5 5
      vertex 16.25 108.146 5
    endloop
  endfacet
  facet normal 0 0 1
    outer loop
      vertex 3.39717 112.322 5
      vertex 20 86.5 5
      vertex 10.0431 110.909 5
    endloop
  endfacet
  facet normal -0 0 1
    outer loop
      vertex -3.39717 112.322 5
      vertex 20 86.5 5
      vertex 3.39717 112.322 5
    endloop
  endfacet
  facet normal 0 0 1
    outer loop
      vertex -20 86.5 5
      vertex -3.39717 112.322 5
      vertex -10.0431 110.909 5
    endloop
  endfacet
  facet normal 0 0 1
    outer loop
      vertex -20 86.5 5
      vertex -10.0431 110.909 5
      vertex -16.25 108.146 5
    endloop
  endfacet
  facet normal 0 0 1
    outer loop
      vertex -3.39717 112.322 5
      vertex -20 86.5 5
      vertex 20 86.5 5
    endloop
  endfacet
  facet normal -0 0 1
    outer loop
      vertex -26.2931 99.103 5
      vertex -20 86.5 5
      vertex -21.7467 104.152 5
    endloop
  endfacet
  facet normal -0 0 1
    outer loop
      vertex -21.7467 104.152 5
      vertex -20 86.5 5
      vertex -16.25 108.146 5
    endloop
  endfacet
  facet normal 0 0 1
    outer loop
      vertex 32.5 0 5
      vertex 42.5 0 5
      vertex 41.5713 8.83625 5
    endloop
  endfacet
  facet normal 0 0 1
    outer loop
      vertex 32.5 0 5
      vertex 41.5713 8.83625 5
      vertex 41.2855 9.71562 5
    endloop
  endfacet
  facet normal 0 0 1
    outer loop
      vertex 42.5 0 5
      vertex 32.5 0 5
      vertex 41.5713 -8.83625 5
    endloop
  endfacet
  facet normal -0 0 1
    outer loop
      vertex 31.7898 -6.75713 5
      vertex 41.5713 -8.83625 5
      vertex 32.5 0 5
    endloop
  endfacet
  facet normal 0 0 1
    outer loop
      vertex 32.5 0 5
      vertex 41.2855 9.71562 5
      vertex 32.5 80 5
    endloop
  endfacet
  facet normal 0 0 1
    outer loop
      vertex 41.5713 -8.83625 5
      vertex 31.7898 -6.75713 5
      vertex 38.8257 -17.2863 5
    endloop
  endfacet
  facet normal -0 0 1
    outer loop
      vertex 29.6902 -13.2189 5
      vertex 38.8257 -17.2863 5
      vertex 31.7898 -6.75713 5
    endloop
  endfacet
  facet normal 0 0 1
    outer loop
      vertex 38.8257 -17.2863 5
      vertex 29.6902 -13.2189 5
      vertex 34.3832 -24.9809 5
    endloop
  endfacet
  facet normal -0 0 1
    outer loop
      vertex 26.2931 -19.103 5
      vertex 34.3832 -24.9809 5
      vertex 29.6902 -13.2189 5
    endloop
  endfacet
  facet normal 0 0 1
    outer loop
      vertex 34.3832 -24.9809 5
      vertex 26.2931 -19.103 5
      vertex 28.438 -31.5837 5
    endloop
  endfacet
  facet normal -0 0 1
    outer loop
      vertex 21.7467 -24.1522 5
      vertex 28.438 -31.5837 5
      vertex 26.2931 -19.103 5
    endloop
  endfacet
  facet normal 0 0 1
    outer loop
      vertex 21.7467 -24.1522 5
      vertex 21.25 -36.8061 5
      vertex 28.438 -31.5837 5
    endloop
  endfacet
  facet normal -0 0 1
    outer loop
      vertex 16.25 -28.1458 5
      vertex 21.25 -36.8061 5
      vertex 21.7467 -24.1522 5
    endloop
  endfacet
  facet normal 0 0 1
    outer loop
      vertex 16.25 -28.1458 5
      vertex 13.1332 -40.4199 5
      vertex 21.25 -36.8061 5
    endloop
  endfacet
  facet normal -0 0 1
    outer loop
      vertex 10.0431 -30.9093 5
      vertex 13.1332 -40.4199 5
      vertex 16.25 -28.1458 5
    endloop
  endfacet
  facet normal 0 0 1
    outer loop
      vertex 10.0431 -30.9093 5
      vertex 4.44246 -42.2672 5
      vertex 13.1332 -40.4199 5
    endloop
  endfacet
  facet normal -0 0 1
    outer loop
      vertex 3.39717 -32.322 5
      vertex 4.44246 -42.2672 5
      vertex 10.0431 -30.9093 5
    endloop
  endfacet
  facet normal -0 0 1
    outer loop
      vertex -3.39717 -32.322 5
      vertex 4.44246 -42.2672 5
      vertex 3.39717 -32.322 5
    endloop
  endfacet
  facet normal 0 0 1
    outer loop
      vertex -3.39717 -32.322 5
      vertex -4.44246 -42.2672 5
      vertex 4.44246 -42.2672 5
    endloop
  endfacet
  facet normal 0 0 1
    outer loop
      vertex -10.0431 -30.9093 5
      vertex -4.44246 -42.2672 5
      vertex -3.39717 -32.322 5
    endloop
  endfacet
  facet normal 0 0 1
    outer loop
      vertex -10.0431 -30.9093 5
      vertex -13.1332 -40.4199 5
      vertex -4.44246 -42.2672 5
    endloop
  endfacet
  facet normal 0 0 1
    outer loop
      vertex -16.25 -28.1458 5
      vertex -13.1332 -40.4199 5
      vertex -10.0431 -30.9093 5
    endloop
  endfacet
  facet normal 0 0 1
    outer loop
      vertex -16.25 -28.1458 5
      vertex -21.25 -36.8061 5
      vertex -13.1332 -40.4199 5
    endloop
  endfacet
  facet normal 0 0 1
    outer loop
      vertex -21.7467 -24.1522 5
      vertex -21.25 -36.8061 5
      vertex -16.25 -28.1458 5
    endloop
  endfacet
  facet normal 0 0 1
    outer loop
      vertex -28.438 -31.5837 5
      vertex -21.7467 -24.1522 5
      vertex -26.2931 -19.103 5
    endloop
  endfacet
  facet normal 0 0 1
    outer loop
      vertex -21.7467 -24.1522 5
      vertex -28.438 -31.5837 5
      vertex -21.25 -36.8061 5
    endloop
  endfacet
  facet normal 0 0 1
    outer loop
      vertex -34.3832 -24.9809 5
      vertex -26.2931 -19.103 5
      vertex -29.6902 -13.2189 5
    endloop
  endfacet
  facet normal 0 0 1
    outer loop
      vertex -38.8257 -17.2863 5
      vertex -29.6902 -13.2189 5
      vertex -31.7898 -6.75713 5
    endloop
  endfacet
  facet normal 0 0 1
    outer loop
      vertex -26.2931 -19.103 5
      vertex -34.3832 -24.9809 5
      vertex -28.438 -31.5837 5
    endloop
  endfacet
  facet normal 0 0 1
    outer loop
      vertex -41.5713 -8.83625 5
      vertex -31.7898 -6.75713 5
      vertex -32.5 0 5
    endloop
  endfacet
  facet normal 0 0 1
    outer loop
      vertex 32.5 80 5
      vertex 21.7467 24.1522 5
      vertex 26.2931 19.103 5
    endloop
  endfacet
  facet normal 0 0 1
    outer loop
      vertex 20 73.5 5
      vertex 16.25 28.1458 5
      vertex 21.7467 24.1522 5
    endloop
  endfacet
  facet normal 0 0 1
    outer loop
      vertex 20 73.5 5
      vertex 10.0431 30.9093 5
      vertex 16.25 28.1458 5
    endloop
  endfacet
  facet normal 0 0 1
    outer loop
      vertex 20 73.5 5
      vertex 3.39717 32.322 5
      vertex 10.0431 30.9093 5
    endloop
  endfacet
  facet normal 0 0 1
    outer loop
      vertex 20 73.5 5
      vertex -3.39717 32.322 5
      vertex 3.39717 32.322 5
    endloop
  endfacet
  facet normal -0 0 1
    outer loop
      vertex -20 73.5 5
      vertex -3.39717 32.322 5
      vertex 20 73.5 5
    endloop
  endfacet
  facet normal 0 0 1
    outer loop
      vertex -3.39717 32.322 5
      vertex -20 73.5 5
      vertex -10.0431 30.9093 5
    endloop
  endfacet
  facet normal 0 0 1
    outer loop
      vertex -10.0431 30.9093 5
      vertex -20 73.5 5
      vertex -16.25 28.1458 5
    endloop
  endfacet
  facet normal 0 0 1
    outer loop
      vertex -20 73.5 5
      vertex -21.7467 24.1522 5
      vertex -16.25 28.1458 5
    endloop
  endfacet
  facet normal -0 0 1
    outer loop
      vertex -29.6902 93.2189 5
      vertex -20 86.5 5
      vertex -26.2931 99.103 5
    endloop
  endfacet
  facet normal -0 0 1
    outer loop
      vertex -31.7898 86.7571 5
      vertex -20 86.5 5
      vertex -29.6902 93.2189 5
    endloop
  endfacet
  facet normal 0 0 1
    outer loop
      vertex -20 73.5 5
      vertex -32.5 80 5
      vertex -21.7467 24.1522 5
    endloop
  endfacet
  facet normal 0 0 1
    outer loop
      vertex -32.5 80 5
      vertex -20 86.5 5
      vertex -31.7898 86.7571 5
    endloop
  endfacet
  facet normal 0 0 1
    outer loop
      vertex -21.7467 24.1522 5
      vertex -32.5 80 5
      vertex -26.2931 19.103 5
    endloop
  endfacet
  facet normal 0 0 1
    outer loop
      vertex -20 86.5 5
      vertex -32.5 80 5
      vertex -20 73.5 5
    endloop
  endfacet
  facet normal 0 0 1
    outer loop
      vertex -41.2855 9.71562 5
      vertex -26.2931 19.103 5
      vertex -32.5 80 5
    endloop
  endfacet
  facet normal 0 0 1
    outer loop
      vertex -26.2931 19.103 5
      vertex -41.2855 9.71562 5
      vertex -29.6902 13.2189 5
    endloop
  endfacet
  facet normal 0 0 1
    outer loop
      vertex -29.6902 13.2189 5
      vertex -41.2855 9.71562 5
      vertex -31.7898 6.75713 5
    endloop
  endfacet
  facet normal -0 0 1
    outer loop
      vertex -41.5713 8.83625 5
      vertex -31.7898 6.75713 5
      vertex -41.2855 9.71562 5
    endloop
  endfacet
  facet normal 0 0 1
    outer loop
      vertex -31.7898 6.75713 5
      vertex -41.5713 8.83625 5
      vertex -32.5 0 5
    endloop
  endfacet
  facet normal 0 0 1
    outer loop
      vertex -29.6902 -13.2189 5
      vertex -38.8257 -17.2863 5
      vertex -34.3832 -24.9809 5
    endloop
  endfacet
  facet normal 0 0 1
    outer loop
      vertex -32.5 0 5
      vertex -41.5713 8.83625 5
      vertex -42.5 0 5
    endloop
  endfacet
  facet normal 0 0 1
    outer loop
      vertex -31.7898 -6.75713 5
      vertex -41.5713 -8.83625 5
      vertex -38.8257 -17.2863 5
    endloop
  endfacet
  facet normal 0 0 1
    outer loop
      vertex -32.5 0 5
      vertex -42.5 0 5
      vertex -41.5713 -8.83625 5
    endloop
  endfacet
  facet normal 0.994522 0.104525 0
    outer loop
      vertex 42.5 0 5
      vertex 41.5713 8.83625 0
      vertex 41.5713 8.83625 5
    endloop
  endfacet
  facet normal 0.994522 0.104525 0
    outer loop
      vertex 41.5713 8.83625 0
      vertex 42.5 0 5
      vertex 42.5 0 0
    endloop
  endfacet
  facet normal -0.207915 -0.978147 0
    outer loop
      vertex -13.1332 -40.4199 0
      vertex -4.44246 -42.2672 5
      vertex -13.1332 -40.4199 5
    endloop
  endfacet
  facet normal -0.207915 -0.978147 -0
    outer loop
      vertex -4.44246 -42.2672 5
      vertex -13.1332 -40.4199 0
      vertex -4.44246 -42.2672 0
    endloop
  endfacet
  facet normal -0.994522 -0.104525 0
    outer loop
      vertex -41.5713 -8.83625 0
      vertex -42.5 0 5
      vertex -42.5 0 0
    endloop
  endfacet
  facet normal -0.994522 -0.104525 0
    outer loop
      vertex -42.5 0 5
      vertex -41.5713 -8.83625 0
      vertex -41.5713 -8.83625 5
    endloop
  endfacet
  facet normal -0.951056 -0.309018 0
    outer loop
      vertex -38.8257 -17.2863 0
      vertex -41.5713 -8.83625 5
      vertex -41.5713 -8.83625 0
    endloop
  endfacet
  facet normal -0.951056 -0.309018 0
    outer loop
      vertex -41.5713 -8.83625 5
      vertex -38.8257 -17.2863 0
      vertex -38.8257 -17.2863 5
    endloop
  endfacet
  facet normal 0.587786 -0.809016 0
    outer loop
      vertex 21.25 -36.8061 0
      vertex 28.438 -31.5837 5
      vertex 21.25 -36.8061 5
    endloop
  endfacet
  facet normal 0.587786 -0.809016 0
    outer loop
      vertex 28.438 -31.5837 5
      vertex 21.25 -36.8061 0
      vertex 28.438 -31.5837 0
    endloop
  endfacet
  facet normal 0.951033 0.309091 0
    outer loop
      vertex 41.5713 8.83625 5
      vertex 41.2855 9.71562 0
      vertex 41.2855 9.71562 5
    endloop
  endfacet
  facet normal 0.951033 0.309091 0
    outer loop
      vertex 41.2855 9.71562 0
      vertex 41.5713 8.83625 5
      vertex 41.5713 8.83625 0
    endloop
  endfacet
  facet normal 0.951056 -0.309018 0
    outer loop
      vertex 38.8257 -17.2863 5
      vertex 41.5713 -8.83625 0
      vertex 41.5713 -8.83625 5
    endloop
  endfacet
  facet normal 0.951056 -0.309018 0
    outer loop
      vertex 41.5713 -8.83625 0
      vertex 38.8257 -17.2863 5
      vertex 38.8257 -17.2863 0
    endloop
  endfacet
  facet normal 0.866024 -0.500002 0
    outer loop
      vertex 34.3832 -24.9809 5
      vertex 38.8257 -17.2863 0
      vertex 38.8257 -17.2863 5
    endloop
  endfacet
  facet normal 0.866024 -0.500002 0
    outer loop
      vertex 38.8257 -17.2863 0
      vertex 34.3832 -24.9809 5
      vertex 34.3832 -24.9809 0
    endloop
  endfacet
  facet normal 0.207915 -0.978147 0
    outer loop
      vertex 4.44246 -42.2672 0
      vertex 13.1332 -40.4199 5
      vertex 4.44246 -42.2672 5
    endloop
  endfacet
  facet normal 0.207915 -0.978147 0
    outer loop
      vertex 13.1332 -40.4199 5
      vertex 4.44246 -42.2672 0
      vertex 13.1332 -40.4199 0
    endloop
  endfacet
  facet normal 0.406734 -0.913547 0
    outer loop
      vertex 13.1332 -40.4199 0
      vertex 21.25 -36.8061 5
      vertex 13.1332 -40.4199 5
    endloop
  endfacet
  facet normal 0.406734 -0.913547 0
    outer loop
      vertex 21.25 -36.8061 5
      vertex 13.1332 -40.4199 0
      vertex 21.25 -36.8061 0
    endloop
  endfacet
  facet normal 0.743144 -0.669131 0
    outer loop
      vertex 28.438 -31.5837 5
      vertex 34.3832 -24.9809 0
      vertex 34.3832 -24.9809 5
    endloop
  endfacet
  facet normal 0.743144 -0.669131 0
    outer loop
      vertex 34.3832 -24.9809 0
      vertex 28.438 -31.5837 5
      vertex 28.438 -31.5837 0
    endloop
  endfacet
  facet normal 0 0 -1
    outer loop
      vertex 41.5713 -8.83625 0
      vertex 31.7898 -6.75713 0
      vertex 32.5 0 0
    endloop
  endfacet
  facet normal 0 0 -1
    outer loop
      vertex 38.8257 -17.2863 0
      vertex 29.6902 -13.2189 0
      vertex 31.7898 -6.75713 0
    endloop
  endfacet
  facet normal 0 0 -1
    outer loop
      vertex 26.2931 -19.103 0
      vertex 34.3832 -24.9809 0
      vertex 28.438 -31.5837 0
    endloop
  endfacet
  facet normal 0 0 -1
    outer loop
      vertex 34.3832 -24.9809 0
      vertex 26.2931 -19.103 0
      vertex 29.6902 -13.2189 0
    endloop
  endfacet
  facet normal 0 0 -1
    outer loop
      vertex 28.438 -31.5837 0
      vertex 21.7467 -24.1522 0
      vertex 26.2931 -19.103 0
    endloop
  endfacet
  facet normal 0 0 -1
    outer loop
      vertex 21.25 -36.8061 0
      vertex 21.7467 -24.1522 0
      vertex 28.438 -31.5837 0
    endloop
  endfacet
  facet normal 0 0 -1
    outer loop
      vertex 21.25 -36.8061 0
      vertex 16.25 -28.1458 0
      vertex 21.7467 -24.1522 0
    endloop
  endfacet
  facet normal 0 0 -1
    outer loop
      vertex 13.1332 -40.4199 0
      vertex 16.25 -28.1458 0
      vertex 21.25 -36.8061 0
    endloop
  endfacet
  facet normal 0 0 -1
    outer loop
      vertex 13.1332 -40.4199 0
      vertex 10.0431 -30.9093 0
      vertex 16.25 -28.1458 0
    endloop
  endfacet
  facet normal 0 0 -1
    outer loop
      vertex 4.44246 -42.2672 0
      vertex 10.0431 -30.9093 0
      vertex 13.1332 -40.4199 0
    endloop
  endfacet
  facet normal 0 0 -1
    outer loop
      vertex 4.44246 -42.2672 0
      vertex 3.39717 -32.322 0
      vertex 10.0431 -30.9093 0
    endloop
  endfacet
  facet normal 0 0 -1
    outer loop
      vertex 4.44246 -42.2672 0
      vertex -3.39717 -32.322 0
      vertex 3.39717 -32.322 0
    endloop
  endfacet
  facet normal 0 0 -1
    outer loop
      vertex -4.44246 -42.2672 0
      vertex -3.39717 -32.322 0
      vertex 4.44246 -42.2672 0
    endloop
  endfacet
  facet normal 0 0 -1
    outer loop
      vertex -4.44246 -42.2672 0
      vertex -10.0431 -30.9093 0
      vertex -3.39717 -32.322 0
    endloop
  endfacet
  facet normal 0 0 -1
    outer loop
      vertex -13.1332 -40.4199 0
      vertex -10.0431 -30.9093 0
      vertex -4.44246 -42.2672 0
    endloop
  endfacet
  facet normal 0 0 -1
    outer loop
      vertex -13.1332 -40.4199 0
      vertex -16.25 -28.1458 0
      vertex -10.0431 -30.9093 0
    endloop
  endfacet
  facet normal 0 0 -1
    outer loop
      vertex -21.25 -36.8061 0
      vertex -16.25 -28.1458 0
      vertex -13.1332 -40.4199 0
    endloop
  endfacet
  facet normal 0 0 -1
    outer loop
      vertex -21.25 -36.8061 0
      vertex -21.7467 -24.1522 0
      vertex -16.25 -28.1458 0
    endloop
  endfacet
  facet normal 0 0 -1
    outer loop
      vertex -28.438 -31.5837 0
      vertex -21.7467 -24.1522 0
      vertex -21.25 -36.8061 0
    endloop
  endfacet
  facet normal -0 0 -1
    outer loop
      vertex -21.7467 -24.1522 0
      vertex -28.438 -31.5837 0
      vertex -26.2931 -19.103 0
    endloop
  endfacet
  facet normal 0 0 -1
    outer loop
      vertex -34.3832 -24.9809 0
      vertex -26.2931 -19.103 0
      vertex -28.438 -31.5837 0
    endloop
  endfacet
  facet normal -0 0 -1
    outer loop
      vertex -26.2931 -19.103 0
      vertex -34.3832 -24.9809 0
      vertex -29.6902 -13.2189 0
    endloop
  endfacet
  facet normal 0 0 -1
    outer loop
      vertex -38.8257 -17.2863 0
      vertex -29.6902 -13.2189 0
      vertex -34.3832 -24.9809 0
    endloop
  endfacet
  facet normal -0 0 -1
    outer loop
      vertex -29.6902 -13.2189 0
      vertex -38.8257 -17.2863 0
      vertex -31.7898 -6.75713 0
    endloop
  endfacet
  facet normal 0 0 -1
    outer loop
      vertex -41.5713 -8.83625 0
      vertex -31.7898 -6.75713 0
      vertex -38.8257 -17.2863 0
    endloop
  endfacet
  facet normal -0 0 -1
    outer loop
      vertex -31.7898 -6.75713 0
      vertex -41.5713 -8.83625 0
      vertex -32.5 0 0
    endloop
  endfacet
  facet normal 0 0 -1
    outer loop
      vertex -32.5 0 0
      vertex -41.2855 9.71562 0
      vertex -32.5 80 0
    endloop
  endfacet
  facet normal 0 0 -1
    outer loop
      vertex -42.5 0 0
      vertex -32.5 0 0
      vertex -41.5713 -8.83625 0
    endloop
  endfacet
  facet normal 0 -0 -1
    outer loop
      vertex -41.5713 8.83625 0
      vertex -32.5 0 0
      vertex -42.5 0 0
    endloop
  endfacet
  facet normal 0 0 -1
    outer loop
      vertex -32.5 0 0
      vertex -41.5713 8.83625 0
      vertex -41.2855 9.71562 0
    endloop
  endfacet
  facet normal 0 0 -1
    outer loop
      vertex 32.5 0 0
      vertex 42.5 0 0
      vertex 41.5713 -8.83625 0
    endloop
  endfacet
  facet normal 0 0 -1
    outer loop
      vertex 42.5 0 0
      vertex 32.5 0 0
      vertex 41.5713 8.83625 0
    endloop
  endfacet
  facet normal 0 0 -1
    outer loop
      vertex 31.7898 -6.75713 0
      vertex 41.5713 -8.83625 0
      vertex 38.8257 -17.2863 0
    endloop
  endfacet
  facet normal 0 0 -1
    outer loop
      vertex 29.6902 -13.2189 0
      vertex 38.8257 -17.2863 0
      vertex 34.3832 -24.9809 0
    endloop
  endfacet
  facet normal 0 0 -1
    outer loop
      vertex 31.7898 6.75713 0
      vertex 41.5713 8.83625 0
      vertex 32.5 0 0
    endloop
  endfacet
  facet normal -0 0 -1
    outer loop
      vertex 41.5713 8.83625 0
      vertex 31.7898 6.75713 0
      vertex 41.2855 9.71562 0
    endloop
  endfacet
  facet normal 0 0 -1
    outer loop
      vertex 29.6902 13.2189 0
      vertex 41.2855 9.71562 0
      vertex 31.7898 6.75713 0
    endloop
  endfacet
  facet normal 0 0 -1
    outer loop
      vertex 26.2931 19.103 0
      vertex 41.2855 9.71562 0
      vertex 29.6902 13.2189 0
    endloop
  endfacet
  facet normal 0 0 -1
    outer loop
      vertex 41.2855 9.71562 0
      vertex 26.2931 19.103 0
      vertex 32.5 80 0
    endloop
  endfacet
  facet normal 0 0 -1
    outer loop
      vertex 21.7467 24.1522 0
      vertex 32.5 80 0
      vertex 26.2931 19.103 0
    endloop
  endfacet
  facet normal 0 0 -1
    outer loop
      vertex 20 86.5 0
      vertex 32.5 80 0
      vertex 20 73.5 0
    endloop
  endfacet
  facet normal 0 0 -1
    outer loop
      vertex 32.5 80 0
      vertex 20 86.5 0
      vertex 31.7898 86.7571 0
    endloop
  endfacet
  facet normal 0 0 -1
    outer loop
      vertex 32.5 80 0
      vertex 21.7467 24.1522 0
      vertex 20 73.5 0
    endloop
  endfacet
  facet normal -0 0 -1
    outer loop
      vertex 31.7898 86.7571 0
      vertex 20 86.5 0
      vertex 29.6902 93.2189 0
    endloop
  endfacet
  facet normal -0 0 -1
    outer loop
      vertex 29.6902 93.2189 0
      vertex 20 86.5 0
      vertex 26.2931 99.103 0
    endloop
  endfacet
  facet normal 0 0 -1
    outer loop
      vertex 16.25 28.1458 0
      vertex 20 73.5 0
      vertex 21.7467 24.1522 0
    endloop
  endfacet
  facet normal 0 0 -1
    outer loop
      vertex 10.0431 30.9093 0
      vertex 20 73.5 0
      vertex 16.25 28.1458 0
    endloop
  endfacet
  facet normal 0 0 -1
    outer loop
      vertex 3.39717 32.322 0
      vertex 20 73.5 0
      vertex 10.0431 30.9093 0
    endloop
  endfacet
  facet normal 0 0 -1
    outer loop
      vertex -3.39717 32.322 0
      vertex 20 73.5 0
      vertex 3.39717 32.322 0
    endloop
  endfacet
  facet normal 0 0 -1
    outer loop
      vertex -20 73.5 0
      vertex -3.39717 32.322 0
      vertex -10.0431 30.9093 0
    endloop
  endfacet
  facet normal 0 0 -1
    outer loop
      vertex -20 73.5 0
      vertex -10.0431 30.9093 0
      vertex -16.25 28.1458 0
    endloop
  endfacet
  facet normal 0 0 -1
    outer loop
      vertex -3.39717 32.322 0
      vertex -20 73.5 0
      vertex 20 73.5 0
    endloop
  endfacet
  facet normal 0 0 -1
    outer loop
      vertex -32.5 80 0
      vertex -20 73.5 0
      vertex -21.7467 24.1522 0
    endloop
  endfacet
  facet normal 0 0 -1
    outer loop
      vertex -21.7467 24.1522 0
      vertex -20 73.5 0
      vertex -16.25 28.1458 0
    endloop
  endfacet
  facet normal -0 0 -1
    outer loop
      vertex 26.2931 99.103 0
      vertex 20 86.5 0
      vertex 21.7467 104.152 0
    endloop
  endfacet
  facet normal 0 0 -1
    outer loop
      vertex 20 86.5 0
      vertex 16.25 108.146 0
      vertex 21.7467 104.152 0
    endloop
  endfacet
  facet normal 0 0 -1
    outer loop
      vertex 20 86.5 0
      vertex 10.0431 110.909 0
      vertex 16.25 108.146 0
    endloop
  endfacet
  facet normal 0 0 -1
    outer loop
      vertex 20 86.5 0
      vertex 3.39717 112.322 0
      vertex 10.0431 110.909 0
    endloop
  endfacet
  facet normal 0 0 -1
    outer loop
      vertex 20 86.5 0
      vertex -3.39717 112.322 0
      vertex 3.39717 112.322 0
    endloop
  endfacet
  facet normal 0 0 -1
    outer loop
      vertex -20 86.5 0
      vertex -3.39717 112.322 0
      vertex 20 86.5 0
    endloop
  endfacet
  facet normal 0 0 -1
    outer loop
      vertex -3.39717 112.322 0
      vertex -20 86.5 0
      vertex -10.0431 110.909 0
    endloop
  endfacet
  facet normal 0 0 -1
    outer loop
      vertex -10.0431 110.909 0
      vertex -20 86.5 0
      vertex -16.25 108.146 0
    endloop
  endfacet
  facet normal 0 0 -1
    outer loop
      vertex -20 86.5 0
      vertex -21.7467 104.152 0
      vertex -16.25 108.146 0
    endloop
  endfacet
  facet normal 0 0 -1
    outer loop
      vertex -20 73.5 0
      vertex -32.5 80 0
      vertex -20 86.5 0
    endloop
  endfacet
  facet normal 0 0 -1
    outer loop
      vertex -32.5 80 0
      vertex -21.7467 24.1522 0
      vertex -26.2931 19.103 0
    endloop
  endfacet
  facet normal 0 -0 -1
    outer loop
      vertex -31.7898 86.7571 0
      vertex -20 86.5 0
      vertex -32.5 80 0
    endloop
  endfacet
  facet normal 0 0 -1
    outer loop
      vertex -32.5 80 0
      vertex -26.2931 19.103 0
      vertex -29.6902 13.2189 0
    endloop
  endfacet
  facet normal 0 0 -1
    outer loop
      vertex -20 86.5 0
      vertex -26.2931 99.103 0
      vertex -21.7467 104.152 0
    endloop
  endfacet
  facet normal 0 0 -1
    outer loop
      vertex -32.5 80 0
      vertex -29.6902 13.2189 0
      vertex -31.7898 6.75713 0
    endloop
  endfacet
  facet normal 0 0 -1
    outer loop
      vertex -20 86.5 0
      vertex -29.6902 93.2189 0
      vertex -26.2931 99.103 0
    endloop
  endfacet
  facet normal 0 0 -1
    outer loop
      vertex -32.5 80 0
      vertex -31.7898 6.75713 0
      vertex -32.5 0 0
    endloop
  endfacet
  facet normal 0 0 -1
    outer loop
      vertex -20 86.5 0
      vertex -31.7898 86.7571 0
      vertex -29.6902 93.2189 0
    endloop
  endfacet
  facet normal -0.743144 -0.669131 0
    outer loop
      vertex -28.438 -31.5837 0
      vertex -34.3832 -24.9809 5
      vertex -34.3832 -24.9809 0
    endloop
  endfacet
  facet normal -0.743144 -0.669131 0
    outer loop
      vertex -34.3832 -24.9809 5
      vertex -28.438 -31.5837 0
      vertex -28.438 -31.5837 5
    endloop
  endfacet
  facet normal -0.866024 -0.500002 0
    outer loop
      vertex -34.3832 -24.9809 0
      vertex -38.8257 -17.2863 5
      vertex -38.8257 -17.2863 0
    endloop
  endfacet
  facet normal -0.866024 -0.500002 0
    outer loop
      vertex -38.8257 -17.2863 5
      vertex -34.3832 -24.9809 0
      vertex -34.3832 -24.9809 5
    endloop
  endfacet
  facet normal -0.406734 -0.913547 0
    outer loop
      vertex -21.25 -36.8061 0
      vertex -13.1332 -40.4199 5
      vertex -21.25 -36.8061 5
    endloop
  endfacet
  facet normal -0.406734 -0.913547 -0
    outer loop
      vertex -13.1332 -40.4199 5
      vertex -21.25 -36.8061 0
      vertex -13.1332 -40.4199 0
    endloop
  endfacet
  facet normal 0 -1 0
    outer loop
      vertex -4.44246 -42.2672 0
      vertex 4.44246 -42.2672 5
      vertex -4.44246 -42.2672 5
    endloop
  endfacet
  facet normal 0 -1 -0
    outer loop
      vertex 4.44246 -42.2672 5
      vertex -4.44246 -42.2672 0
      vertex 4.44246 -42.2672 0
    endloop
  endfacet
  facet normal -0.587786 -0.809016 0
    outer loop
      vertex -28.438 -31.5837 0
      vertex -21.25 -36.8061 5
      vertex -28.438 -31.5837 5
    endloop
  endfacet
  facet normal -0.587786 -0.809016 -0
    outer loop
      vertex -21.25 -36.8061 5
      vertex -28.438 -31.5837 0
      vertex -21.25 -36.8061 0
    endloop
  endfacet
  facet normal 0.406676 0.913572 -0
    outer loop
      vertex 16.25 108.146 0
      vertex 10.0431 110.909 5
      vertex 16.25 108.146 5
    endloop
  endfacet
  facet normal 0.406676 0.913572 0
    outer loop
      vertex 10.0431 110.909 5
      vertex 16.25 108.146 0
      vertex 10.0431 110.909 0
    endloop
  endfacet
  facet normal 0 1 -0
    outer loop
      vertex 3.39717 112.322 0
      vertex -3.39717 112.322 5
      vertex 3.39717 112.322 5
    endloop
  endfacet
  facet normal 0 1 0
    outer loop
      vertex -3.39717 112.322 5
      vertex 3.39717 112.322 0
      vertex -3.39717 112.322 0
    endloop
  endfacet
  facet normal -0.406676 0.913572 0
    outer loop
      vertex -10.0431 110.909 0
      vertex -16.25 108.146 5
      vertex -10.0431 110.909 5
    endloop
  endfacet
  facet normal -0.406676 0.913572 0
    outer loop
      vertex -16.25 108.146 5
      vertex -10.0431 110.909 0
      vertex -16.25 108.146 0
    endloop
  endfacet
  facet normal -0.951055 0.309022 0
    outer loop
      vertex -31.7898 86.7571 0
      vertex -29.6902 93.2189 5
      vertex -29.6902 93.2189 0
    endloop
  endfacet
  facet normal -0.951055 0.309022 0
    outer loop
      vertex -29.6902 93.2189 5
      vertex -31.7898 86.7571 0
      vertex -31.7898 86.7571 5
    endloop
  endfacet
  facet normal 0.951055 0.309022 0
    outer loop
      vertex 31.7898 86.7571 5
      vertex 29.6902 93.2189 0
      vertex 29.6902 93.2189 5
    endloop
  endfacet
  facet normal 0.951055 0.309022 0
    outer loop
      vertex 29.6902 93.2189 0
      vertex 31.7898 86.7571 5
      vertex 31.7898 86.7571 0
    endloop
  endfacet
  facet normal 0.866031 0.49999 0
    outer loop
      vertex 29.6902 93.2189 5
      vertex 26.2931 99.103 0
      vertex 26.2931 99.103 5
    endloop
  endfacet
  facet normal 0.866031 0.49999 0
    outer loop
      vertex 26.2931 99.103 0
      vertex 29.6902 93.2189 5
      vertex 29.6902 93.2189 0
    endloop
  endfacet
  facet normal 0.743126 0.669152 0
    outer loop
      vertex 26.2931 99.103 5
      vertex 21.7467 104.152 0
      vertex 21.7467 104.152 5
    endloop
  endfacet
  facet normal 0.743126 0.669152 0
    outer loop
      vertex 21.7467 104.152 0
      vertex 26.2931 99.103 5
      vertex 26.2931 99.103 0
    endloop
  endfacet
  facet normal 0.587825 0.808988 -0
    outer loop
      vertex 21.7467 104.152 0
      vertex 16.25 108.146 5
      vertex 21.7467 104.152 5
    endloop
  endfacet
  facet normal 0.587825 0.808988 0
    outer loop
      vertex 16.25 108.146 5
      vertex 21.7467 104.152 0
      vertex 16.25 108.146 0
    endloop
  endfacet
  facet normal 0.207963 0.978137 -0
    outer loop
      vertex 10.0431 110.909 0
      vertex 3.39717 112.322 5
      vertex 10.0431 110.909 5
    endloop
  endfacet
  facet normal 0.207963 0.978137 0
    outer loop
      vertex 3.39717 112.322 5
      vertex 10.0431 110.909 0
      vertex 3.39717 112.322 0
    endloop
  endfacet
  facet normal -0.866031 0.49999 0
    outer loop
      vertex -29.6902 93.2189 0
      vertex -26.2931 99.103 5
      vertex -26.2931 99.103 0
    endloop
  endfacet
  facet normal -0.866031 0.49999 0
    outer loop
      vertex -26.2931 99.103 5
      vertex -29.6902 93.2189 0
      vertex -29.6902 93.2189 5
    endloop
  endfacet
  facet normal -0.587825 0.808988 0
    outer loop
      vertex -16.25 108.146 0
      vertex -21.7467 104.152 5
      vertex -16.25 108.146 5
    endloop
  endfacet
  facet normal -0.587825 0.808988 0
    outer loop
      vertex -21.7467 104.152 5
      vertex -16.25 108.146 0
      vertex -21.7467 104.152 0
    endloop
  endfacet
  facet normal -0.207963 0.978137 0
    outer loop
      vertex -3.39717 112.322 0
      vertex -10.0431 110.909 5
      vertex -3.39717 112.322 5
    endloop
  endfacet
  facet normal -0.207963 0.978137 0
    outer loop
      vertex -10.0431 110.909 5
      vertex -3.39717 112.322 0
      vertex -10.0431 110.909 0
    endloop
  endfacet
  facet normal -0.743126 0.669152 0
    outer loop
      vertex -26.2931 99.103 0
      vertex -21.7467 104.152 5
      vertex -21.7467 104.152 0
    endloop
  endfacet
  facet normal -0.743126 0.669152 0
    outer loop
      vertex -21.7467 104.152 5
      vertex -26.2931 99.103 0
      vertex -26.2931 99.103 5
    endloop
  endfacet
  facet normal 0.994522 0.104528 0
    outer loop
      vertex 32.5 80 5
      vertex 31.7898 86.7571 0
      vertex 31.7898 86.7571 5
    endloop
  endfacet
  facet normal 0.994522 0.104528 0
    outer loop
      vertex 31.7898 86.7571 0
      vertex 32.5 80 5
      vertex 32.5 80 0
    endloop
  endfacet
  facet normal -0.994522 0.104528 0
    outer loop
      vertex -32.5 80 0
      vertex -31.7898 86.7571 5
      vertex -31.7898 86.7571 0
    endloop
  endfacet
  facet normal -0.994522 0.104528 0
    outer loop
      vertex -31.7898 86.7571 5
      vertex -32.5 80 0
      vertex -32.5 80 5
    endloop
  endfacet
  facet normal -0.866031 -0.49999 0
    outer loop
      vertex 29.6902 13.2189 0
      vertex 26.2931 19.103 5
      vertex 26.2931 19.103 0
    endloop
  endfacet
  facet normal -0.866031 -0.49999 0
    outer loop
      vertex 26.2931 19.103 5
      vertex 29.6902 13.2189 0
      vertex 29.6902 13.2189 5
    endloop
  endfacet
  facet normal 0.994522 -0.104528 0
    outer loop
      vertex -32.5 0 5
      vertex -31.7898 6.75713 0
      vertex -31.7898 6.75713 5
    endloop
  endfacet
  facet normal 0.994522 -0.104528 0
    outer loop
      vertex -31.7898 6.75713 0
      vertex -32.5 0 5
      vertex -32.5 0 0
    endloop
  endfacet
  facet normal 0.866031 0.49999 0
    outer loop
      vertex -26.2931 -19.103 5
      vertex -29.6902 -13.2189 0
      vertex -29.6902 -13.2189 5
    endloop
  endfacet
  facet normal 0.866031 0.49999 0
    outer loop
      vertex -29.6902 -13.2189 0
      vertex -26.2931 -19.103 5
      vertex -26.2931 -19.103 0
    endloop
  endfacet
  facet normal 0 -1 0
    outer loop
      vertex -3.39717 32.322 0
      vertex 3.39717 32.322 5
      vertex -3.39717 32.322 5
    endloop
  endfacet
  facet normal 0 -1 -0
    outer loop
      vertex 3.39717 32.322 5
      vertex -3.39717 32.322 0
      vertex 3.39717 32.322 0
    endloop
  endfacet
  facet normal -0.743139 -0.669137 0
    outer loop
      vertex 26.2931 19.103 0
      vertex 21.7467 24.1522 5
      vertex 21.7467 24.1522 0
    endloop
  endfacet
  facet normal -0.743139 -0.669137 0
    outer loop
      vertex 21.7467 24.1522 5
      vertex 26.2931 19.103 0
      vertex 26.2931 19.103 5
    endloop
  endfacet
  facet normal -0.207921 -0.978146 0
    outer loop
      vertex 3.39717 32.322 0
      vertex 10.0431 30.9093 5
      vertex 3.39717 32.322 5
    endloop
  endfacet
  facet normal -0.207921 -0.978146 -0
    outer loop
      vertex 10.0431 30.9093 5
      vertex 3.39717 32.322 0
      vertex 10.0431 30.9093 0
    endloop
  endfacet
  facet normal 0.406738 -0.913545 0
    outer loop
      vertex -16.25 28.1458 0
      vertex -10.0431 30.9093 5
      vertex -16.25 28.1458 5
    endloop
  endfacet
  facet normal 0.406738 -0.913545 0
    outer loop
      vertex -10.0431 30.9093 5
      vertex -16.25 28.1458 0
      vertex -10.0431 30.9093 0
    endloop
  endfacet
  facet normal 0.951055 -0.309023 0
    outer loop
      vertex -31.7898 6.75713 5
      vertex -29.6902 13.2189 0
      vertex -29.6902 13.2189 5
    endloop
  endfacet
  facet normal 0.951055 -0.309023 0
    outer loop
      vertex -29.6902 13.2189 0
      vertex -31.7898 6.75713 5
      vertex -31.7898 6.75713 0
    endloop
  endfacet
  facet normal -0.994522 0.104528 0
    outer loop
      vertex 31.7898 -6.75713 0
      vertex 32.5 0 5
      vertex 32.5 0 0
    endloop
  endfacet
  facet normal -0.994522 0.104528 0
    outer loop
      vertex 32.5 0 5
      vertex 31.7898 -6.75713 0
      vertex 31.7898 -6.75713 5
    endloop
  endfacet
  facet normal -0.207921 0.978146 0
    outer loop
      vertex 10.0431 -30.9093 0
      vertex 3.39717 -32.322 5
      vertex 10.0431 -30.9093 5
    endloop
  endfacet
  facet normal -0.207921 0.978146 0
    outer loop
      vertex 3.39717 -32.322 5
      vertex 10.0431 -30.9093 0
      vertex 3.39717 -32.322 0
    endloop
  endfacet
  facet normal -0.951055 -0.309023 0
    outer loop
      vertex 31.7898 6.75713 0
      vertex 29.6902 13.2189 5
      vertex 29.6902 13.2189 0
    endloop
  endfacet
  facet normal -0.951055 -0.309023 0
    outer loop
      vertex 29.6902 13.2189 5
      vertex 31.7898 6.75713 0
      vertex 31.7898 6.75713 5
    endloop
  endfacet
  facet normal -0.587787 -0.809016 0
    outer loop
      vertex 16.25 28.1458 0
      vertex 21.7467 24.1522 5
      vertex 16.25 28.1458 5
    endloop
  endfacet
  facet normal -0.587787 -0.809016 -0
    outer loop
      vertex 21.7467 24.1522 5
      vertex 16.25 28.1458 0
      vertex 21.7467 24.1522 0
    endloop
  endfacet
  facet normal -0.406738 -0.913545 0
    outer loop
      vertex 10.0431 30.9093 0
      vertex 16.25 28.1458 5
      vertex 10.0431 30.9093 5
    endloop
  endfacet
  facet normal -0.406738 -0.913545 -0
    outer loop
      vertex 16.25 28.1458 5
      vertex 10.0431 30.9093 0
      vertex 16.25 28.1458 0
    endloop
  endfacet
  facet normal 0.866031 -0.49999 0
    outer loop
      vertex -29.6902 13.2189 5
      vertex -26.2931 19.103 0
      vertex -26.2931 19.103 5
    endloop
  endfacet
  facet normal 0.866031 -0.49999 0
    outer loop
      vertex -26.2931 19.103 0
      vertex -29.6902 13.2189 5
      vertex -29.6902 13.2189 0
    endloop
  endfacet
  facet normal 0.587787 -0.809016 0
    outer loop
      vertex -21.7467 24.1522 0
      vertex -16.25 28.1458 5
      vertex -21.7467 24.1522 5
    endloop
  endfacet
  facet normal 0.587787 -0.809016 0
    outer loop
      vertex -16.25 28.1458 5
      vertex -21.7467 24.1522 0
      vertex -16.25 28.1458 0
    endloop
  endfacet
  facet normal 0.207921 -0.978146 0
    outer loop
      vertex -10.0431 30.9093 0
      vertex -3.39717 32.322 5
      vertex -10.0431 30.9093 5
    endloop
  endfacet
  facet normal 0.207921 -0.978146 0
    outer loop
      vertex -3.39717 32.322 5
      vertex -10.0431 30.9093 0
      vertex -3.39717 32.322 0
    endloop
  endfacet
  facet normal 0.743139 -0.669137 0
    outer loop
      vertex -26.2931 19.103 5
      vertex -21.7467 24.1522 0
      vertex -21.7467 24.1522 5
    endloop
  endfacet
  facet normal 0.743139 -0.669137 0
    outer loop
      vertex -21.7467 24.1522 0
      vertex -26.2931 19.103 5
      vertex -26.2931 19.103 0
    endloop
  endfacet
  facet normal -0.994522 -0.104528 0
    outer loop
      vertex 32.5 0 0
      vertex 31.7898 6.75713 5
      vertex 31.7898 6.75713 0
    endloop
  endfacet
  facet normal -0.994522 -0.104528 0
    outer loop
      vertex 31.7898 6.75713 5
      vertex 32.5 0 0
      vertex 32.5 0 5
    endloop
  endfacet
  facet normal 0.207921 0.978146 -0
    outer loop
      vertex -3.39717 -32.322 0
      vertex -10.0431 -30.9093 5
      vertex -3.39717 -32.322 5
    endloop
  endfacet
  facet normal 0.207921 0.978146 0
    outer loop
      vertex -10.0431 -30.9093 5
      vertex -3.39717 -32.322 0
      vertex -10.0431 -30.9093 0
    endloop
  endfacet
  facet normal 0.994522 0.104528 0
    outer loop
      vertex -31.7898 -6.75713 5
      vertex -32.5 0 0
      vertex -32.5 0 5
    endloop
  endfacet
  facet normal 0.994522 0.104528 0
    outer loop
      vertex -32.5 0 0
      vertex -31.7898 -6.75713 5
      vertex -31.7898 -6.75713 0
    endloop
  endfacet
  facet normal 0.951055 0.309023 0
    outer loop
      vertex -29.6902 -13.2189 5
      vertex -31.7898 -6.75713 0
      vertex -31.7898 -6.75713 5
    endloop
  endfacet
  facet normal 0.951055 0.309023 0
    outer loop
      vertex -31.7898 -6.75713 0
      vertex -29.6902 -13.2189 5
      vertex -29.6902 -13.2189 0
    endloop
  endfacet
  facet normal -0.587787 0.809016 0
    outer loop
      vertex 21.7467 -24.1522 0
      vertex 16.25 -28.1458 5
      vertex 21.7467 -24.1522 5
    endloop
  endfacet
  facet normal -0.587787 0.809016 0
    outer loop
      vertex 16.25 -28.1458 5
      vertex 21.7467 -24.1522 0
      vertex 16.25 -28.1458 0
    endloop
  endfacet
  facet normal -0.951055 0.309023 0
    outer loop
      vertex 29.6902 -13.2189 0
      vertex 31.7898 -6.75713 5
      vertex 31.7898 -6.75713 0
    endloop
  endfacet
  facet normal -0.951055 0.309023 0
    outer loop
      vertex 31.7898 -6.75713 5
      vertex 29.6902 -13.2189 0
      vertex 29.6902 -13.2189 5
    endloop
  endfacet
  facet normal -0.866031 0.49999 0
    outer loop
      vertex 26.2931 -19.103 0
      vertex 29.6902 -13.2189 5
      vertex 29.6902 -13.2189 0
    endloop
  endfacet
  facet normal -0.866031 0.49999 0
    outer loop
      vertex 29.6902 -13.2189 5
      vertex 26.2931 -19.103 0
      vertex 26.2931 -19.103 5
    endloop
  endfacet
  facet normal -0.743139 0.669137 0
    outer loop
      vertex 21.7467 -24.1522 0
      vertex 26.2931 -19.103 5
      vertex 26.2931 -19.103 0
    endloop
  endfacet
  facet normal -0.743139 0.669137 0
    outer loop
      vertex 26.2931 -19.103 5
      vertex 21.7467 -24.1522 0
      vertex 21.7467 -24.1522 5
    endloop
  endfacet
  facet normal 0.743139 0.669137 0
    outer loop
      vertex -21.7467 -24.1522 5
      vertex -26.2931 -19.103 0
      vertex -26.2931 -19.103 5
    endloop
  endfacet
  facet normal 0.743139 0.669137 0
    outer loop
      vertex -26.2931 -19.103 0
      vertex -21.7467 -24.1522 5
      vertex -21.7467 -24.1522 0
    endloop
  endfacet
  facet normal 0 1 -0
    outer loop
      vertex 3.39717 -32.322 0
      vertex -3.39717 -32.322 5
      vertex 3.39717 -32.322 5
    endloop
  endfacet
  facet normal 0 1 0
    outer loop
      vertex -3.39717 -32.322 5
      vertex 3.39717 -32.322 0
      vertex -3.39717 -32.322 0
    endloop
  endfacet
  facet normal 0.587787 0.809016 -0
    outer loop
      vertex -16.25 -28.1458 0
      vertex -21.7467 -24.1522 5
      vertex -16.25 -28.1458 5
    endloop
  endfacet
  facet normal 0.587787 0.809016 0
    outer loop
      vertex -21.7467 -24.1522 5
      vertex -16.25 -28.1458 0
      vertex -21.7467 -24.1522 0
    endloop
  endfacet
  facet normal 0.406738 0.913545 -0
    outer loop
      vertex -10.0431 -30.9093 0
      vertex -16.25 -28.1458 5
      vertex -10.0431 -30.9093 5
    endloop
  endfacet
  facet normal 0.406738 0.913545 0
    outer loop
      vertex -16.25 -28.1458 5
      vertex -10.0431 -30.9093 0
      vertex -16.25 -28.1458 0
    endloop
  endfacet
  facet normal -0.406738 0.913545 0
    outer loop
      vertex 16.25 -28.1458 0
      vertex 10.0431 -30.9093 5
      vertex 16.25 -28.1458 5
    endloop
  endfacet
  facet normal -0.406738 0.913545 0
    outer loop
      vertex 10.0431 -30.9093 5
      vertex 16.25 -28.1458 0
      vertex 10.0431 -30.9093 0
    endloop
  endfacet
  facet normal 1 -0 0
    outer loop
      vertex -20 73.5 5
      vertex -20 86.5 0
      vertex -20 86.5 5
    endloop
  endfacet
  facet normal 1 0 0
    outer loop
      vertex -20 86.5 0
      vertex -20 73.5 5
      vertex -20 73.5 0
    endloop
  endfacet
  facet normal -1 0 0
    outer loop
      vertex 20 73.5 0
      vertex 20 86.5 5
      vertex 20 86.5 0
    endloop
  endfacet
  facet normal -1 -0 0
    outer loop
      vertex 20 86.5 5
      vertex 20 73.5 0
      vertex 20 73.5 5
    endloop
  endfacet
  facet normal 0 1 -0
    outer loop
      vertex 20 73.5 0
      vertex -20 73.5 5
      vertex 20 73.5 5
    endloop
  endfacet
  facet normal 0 1 0
    outer loop
      vertex -20 73.5 5
      vertex 20 73.5 0
      vertex -20 73.5 0
    endloop
  endfacet
  facet normal 0 -1 0
    outer loop
      vertex -20 86.5 0
      vertex 20 86.5 5
      vertex -20 86.5 5
    endloop
  endfacet
  facet normal 0 -1 -0
    outer loop
      vertex 20 86.5 5
      vertex -20 86.5 0
      vertex 20 86.5 0
    endloop
  endfacet
  facet normal 0.992278 0.124034 0
    outer loop
      vertex 41.2855 9.71562 5
      vertex 32.5 80 0
      vertex 32.5 80 5
    endloop
  endfacet
  facet normal 0.992278 0.124034 0
    outer loop
      vertex 32.5 80 0
      vertex 41.2855 9.71562 5
      vertex 41.2855 9.71562 0
    endloop
  endfacet
  facet normal -0.992278 0.124034 0
    outer loop
      vertex -41.2855 9.71562 0
      vertex -32.5 80 5
      vertex -32.5 80 0
    endloop
  endfacet
  facet normal -0.992278 0.124034 0
    outer loop
      vertex -32.5 80 5
      vertex -41.2855 9.71562 0
      vertex -41.2855 9.71562 5
    endloop
  endfacet
endsolid OpenSCAD_Model
